<svg xmlns="http://www.w3.org/2000/svg" width="29.225" height="38.94" viewBox="0 0 29.225 38.94">
  <g id="layer1" transform="translate(1441.07 2302.818)">
    <path id="path3225" d="M50.072,38.923a.6.6,0,0,0-.128.055c-.032.089-.134.026-.2.026-.061-.036-.127-.077-.2-.029-.05.038-.036.183.054.117.063-.055.076.126.166.064.087-.031.127.1.072.132-.06,0-.182-.049-.2.008s-.045.185-.1.168a.249.249,0,0,0-.2.064c.021.08-.022.16.01.238-.047.089-.125.044-.2.063-.03.051-.02.185.052.183.11-.013.072.164-.023.1.035.1-.083.156-.1.235-.065-.064-.133-.057-.162.028a.631.631,0,0,1-.193.106c-.049.085-.133-.008-.169.1a.946.946,0,0,1-.289-.009c-.094-.028-.114.076-.156.133-.077.075-.154-.047-.214-.092-.074-.068-.051.1-.086.136-.044.057-.2,0-.172.1.1.047.165.142.27.179.065.033.209.063.165.163-.074-.012-.118.041-.169.081-.068,0-.131.152-.153.02a.212.212,0,0,0-.135-.135c0,.085-.1.1-.141.137-.115-.02-.037-.089-.02-.165.02-.136-.086-.041-.133-.018-.079-.023-.027-.151.032-.18.048-.067-.052-.144-.092-.2-.01.121-.079.085-.141.061s-.145-.008-.135.089a.188.188,0,0,1-.175-.047.144.144,0,0,0-.138.145.185.185,0,0,1-.2-.068.622.622,0,0,1-.122-.2c-.019-.078.013-.207-.1-.217s-.238.032-.333-.049a.931.931,0,0,0-.586.057c-.05.037-.223.062-.1.118.071.033.143.094.224.078.138-.019.006.079.033.141a.275.275,0,0,0-.072.247c-.012.051.016.209.064.108.047-.028.113-.111.176-.086.073.1-.057.109-.124.135-.049.027.012.142-.032.181a.665.665,0,0,0-.243,0c-.1,0-.117.077-.135.136-.011.131-.116-.022-.139.043.015.07-.04.172.039.205.008.08-.132.029-.142.047-.055.043-.168.024-.164.134s-.143.057-.08-.04a.159.159,0,0,0-.175-.07.548.548,0,0,1-.011-.064c.019-.142-.12-.02-.141-.088-.038-.073-.046-.024-.064.031-.012.035-.027.08-.059.076-.051-.087-.194-.062-.119.048.04.048-.007.156-.065.2-.083.015-.155.033-.172.13,0,.075-.144.143-.072.177-.021.068.045.139-.012.217a.214.214,0,0,1-.223.068c-.1-.076-.243-.149-.352-.054a.178.178,0,0,1-.27-.1c.006-.123-.186-.058-.213-.162-.058-.052-.181.018-.216-.082a.134.134,0,0,0-.24,0c-.087.033-.14-.051-.215-.005-.127-.071-.106.089-.169.106-.074,0-.115.186.015.142.055-.047.195.08.119.082-.083-.053-.2.017-.3,0-.04-.078.007-.169-.009-.253-.036-.076.072-.194-.033-.221-.116-.05-.09.139-.183.106a.5.5,0,0,1-.26-.024c-.082-.06-.161.059-.207.118a.606.606,0,0,1-.287.091.729.729,0,0,0-.234-.068c-.107-.037-.051.137-.087.2-.013.08-.011.21-.12.132-.079,0-.159-.069-.229-.057-.029.113-.129.176-.211.247-.074.037.1.119.123.185-.078.005-.017.115.028.187.1.082-.041.133-.105.076a2.077,2.077,0,0,1-.134.311.589.589,0,0,1-.05.185.206.206,0,0,1-.033.043c-.04.063.013.169.013.237-.091.036-.026.142-.1.2.042.106-.093.127-.117.187.006.049-.151.05-.132.1-.017.082.048.1.023.168-.1.068.078.171-.04.183.06.073-.088.068-.132.1-.1-.071-.011-.118,0-.157-.086,0-.111-.064-.11-.146-.037.123-.065,0-.112-.048-.068-.087-.157,0-.049.062.017.086.156.067.152.15-.048.1-.116-.087-.112.008-.074.049-.028.084.024.132a.18.18,0,0,1-.165.143c-.118-.054-.131.01-.106.116a.29.29,0,0,1-.011.2c-.047.014-.153-.036-.231,0-.049-.081-.131,0-.194.009a.771.771,0,0,0-.2.012.251.251,0,0,1-.094-.047c-.06-.037-.107-.092-.167-.129-.018-.022-.045-.005-.068,0l-.091-.086a.679.679,0,0,0-.1-.034c-.022,0-.043.015-.047-.018-.024-.016-.021-.051-.032-.075-.037-.049-.08-.095-.119-.142-.013-.018-.02-.043-.047-.035a1.044,1.044,0,0,1-.2-.012c-.015.009-.042.024-.042.045a.2.2,0,0,0,.006.1l-.132-.008c-.027-.006-.062.007-.081-.018s-.039-.021-.058-.028c-.01-.025.03-.027.044-.041.032-.008.02-.031,0-.046s.022-.014.034-.023c.016-.025.047-.008.068-.02a.1.1,0,0,1,.069-.025.531.531,0,0,0,.06-.121l-.059-.167c-.014-.021,0-.042,0-.064l-.058-.018c-.089.038-.146-.075-.226-.042-.065-.056-.144.019-.219-.013-.057-.053-.153-.044-.209-.064a.194.194,0,0,0-.16-.173c-.055-.051-.128-.088-.153-.175-.108.045-.042-.114-.175-.084-.008-.134-.1-.01-.177-.059-.112-.1-.035.042-.107.049,0,.081-.117.114-.1.161.125.065.01.129-.075.113-.047-.036-.041-.136-.1-.2-.142.061-.081-.078-.127-.112-.061.014-.039-.161-.141-.046.006.083.073.142,0,.227-.059-.02-.194-.027-.157-.11a.249.249,0,0,1,.127-.185c.136-.058-.121-.047-.059-.108.138-.034-.032-.092-.079-.025-.061.026-.151.019-.192.1-.082-.019-.162.022-.242.007-.06.038-.19-.067-.184.053-.07.024-.133.1-.213.072a.069.069,0,0,0,.034.134c.062.042,0,.119-.034.162.071.1.039.1-.053.147-.011.069-.143.124-.068.195.119.022.046.135-.042.143-.072-.026-.185.089-.072.109.064.027-.046.137-.061.2-.066-.019-.2-.042-.137.066.067.086-.07.148-.119.09-.036-.12-.1-.01-.1.067a.3.3,0,0,1-.226.037c-.011-.092.052-.169-.081-.164a2.16,2.16,0,0,0-.438.11c-.058.021-.066.17.007.2.053.1-.085.1-.1.194a.528.528,0,0,1-.082.309c-.019.1.051.157.049.246,0,.106.017.164.136.157.137-.014.019.122-.042.148-.082.053-.153.133,0,.123.087.027.134-.108.195-.137.09.057.028.17.016.255.007.08-.05.179,0,.253a.576.576,0,0,0-.072.241c-.019.068-.017.123-.083.162-.1,0-.08.147-.176.178s-.077.154-.14.209c-.1.021-.084.144-.208.111-.032.063-.112.136-.2.091-.055-.066-.114,0-.163.042-.008.075-.052.146.033.2a.115.115,0,0,1,.022.095c-.013.03-.088.1-.072.133s.1.012.112.034a.122.122,0,0,0,.063.042.593.593,0,0,0,.151.02c.027,0,.025-.035.052-.035s.073.014.093,0,.016-.046.052-.042a.276.276,0,0,1,.093.038c.032.016.073.028.079.012s.005-.033.028-.023.047.027.071.02a.1.1,0,0,1,.065,0c.035.006.06-.045.093-.049s.044-.013.071.022.058-.015.084,0,.046.041.074.042.114-.042.145-.025.066.01.1.034a1.44,1.44,0,0,0,.22.094c.039.011.12-.029.161,0s.062.029.064.071a.085.085,0,0,0,.038.078.08.08,0,0,1,.04.078c0,.04-.018.059.029.1s.163.1.168.124,0,.063-.02.072-.043.024-.066.076-.036.125-.061.144a1.936,1.936,0,0,0-.2.126,2.193,2.193,0,0,1-.125.185,1.261,1.261,0,0,0-.117.206,1.181,1.181,0,0,0-.047.118s-.043.076-.052.095-.033.09-.033.09c0,.032,0,.065.005.1-.049.02-.132.032-.151-.032a1.63,1.63,0,0,1-.281.1c-.074.042-.139-.019-.205.037-.068.016-.147-.055-.219-.033-.083.007-.142.087-.22.03-.068.009-.16-.051-.207-.035a.8.8,0,0,1-.054.291c.026.1,0,.095-.062.044-.069-.079-.121-.042-.1.053a.439.439,0,0,1-.006.2.187.187,0,0,1-.024.2.56.56,0,0,0-.06.209.923.923,0,0,1-.12.178c-.009.077-.075.158-.077.034a.7.7,0,0,1-.194-.1c-.067-.027-.213.083-.274.055-.016.1-.121.119-.206.139-.094-.074-.163-.172-.253-.251-.054-.063-.092.092-.176,0-.058-.011-.191-.119-.172,0-.061.114-.2.048-.3.072-.1-.008-.173.072-.268.069-.068.019-.169-.01-.195.065-.049.055-.127,0-.191.014-.017.012-.013.128-.014.186s.08.2-.006.153c-.041-.08-.13-.05-.2-.061a.706.706,0,0,0-.127-.18c-.116-.058.041-.132.014-.18-.06-.074-.155-.017-.19.052-.087.1-.056-.044-.011-.093a.142.142,0,0,0-.132-.13.348.348,0,0,0-.2-.007c-.12-.047-.04.053-.1.109s-.063.2-.128.084c-.039-.113-.11-.008-.171-.054a1.291,1.291,0,0,0-.219-.008.254.254,0,0,0-.062.206c-.037.08-.033.181-.095.247-.051.042-.168.1-.139.167-.092.077-.1.212-.168.3-.044.062-.041.19.048.205-.017.075.06.116.084.176,0,.081,0,.1-.034.107,0,0,.02-.057.006-.083s-.058-.028-.07-.031a.587.587,0,0,1-.1-.065c-.018-.017-.027,0-.045.011s-.021,0-.042-.017-.05,0-.08,0-.035,0-.047-.021-.016-.01-.048,0a.24.24,0,0,1-.072,0,.062.062,0,0,1-.043-.024c-.017-.017-.016,0-.033.012s-.023-.008-.048-.025-.035,0-.058.008a.355.355,0,0,1-.094.01.281.281,0,0,1-.065,0,1.563,1.563,0,0,0-.16,0c-.027,0-.251-.008-.295-.005s-.068.016-.111.02-.094,0-.143,0a.138.138,0,0,0-.085.034.371.371,0,0,1-.137-.014.17.17,0,0,0-.126.027c-.033.033-.075-.005-.113-.01s-.079-.025-.066-.073a.909.909,0,0,1-.069-.252.207.207,0,0,0-.047-.144.765.765,0,0,0-.192-.147c-.038-.034-.066,0-.1.026s-.058.055-.088.068-.087-.034-.071.03a1.174,1.174,0,0,0-.158.164.6.6,0,0,1-.2-.03.228.228,0,0,0,.081.135c.028.075-.08.062-.072.122a.629.629,0,0,0-.212-.013c-.054.011-.126,0-.128.078.03.072-.058.081-.043.148a.842.842,0,0,0-.149.077c-.047,0-.126.063-.118-.02-.047-.052-.1.036-.147.051-.008.07-.058.053-.1.1-.063,0-.01-.124-.084-.133-.072.033-.06-.1-.121-.058a1.039,1.039,0,0,0-.168.1c-.039.037-.122.058-.133.106a.92.92,0,0,1,.085.207c.059.036.024.1-.036.1a.533.533,0,0,1,.078.165c0,.071-.032.144-.027.218-.018.083.074-.021.1-.039.045-.027.1.038.156-.024.068.007.067.068.068.1.036.04.1-.019.144.047.052.029.11.089.145.009s.075-.01.136-.005c.1.009.171.089.256.138.045.055.1.024.16.007.073-.037.02.085.021.123.083.094.205.141.285.238a2.2,2.2,0,0,1,.392.127c.095,0,0,.1.041.121.065-.037.175-.05.236-.1a2.3,2.3,0,0,1-.018.267c-.021.058-.067.085-.033.159a.105.105,0,0,1-.079.079c.093.1-.056.121-.1.178a.767.767,0,0,0-.306.139c-.041.035-.15.038-.151.1s.024.157-.017.214.044.091.057.146c.031-.014.132-.019.1-.086s.088-.052.133-.065c.059,0,.148-.03.174.043a.268.268,0,0,0,.273.023c.138-.008.286-.064.418,0,.052.013.11.085.153.023.077-.033.119-.113.195-.147a.175.175,0,0,0,.111-.111c0-.068.1-.065.146-.088l.07.088c.036.067.18.1.157.154-.1.041.035.209-.112.181a.3.3,0,0,0-.158.158c.035.052.059.221.13.164-.03-.121.066.011.1.062.076,0,.171,0,.152.124-.057.064-.049.182.039.176.078.109-.133.1-.069.206.006.1.13.025.16.127.087.082.167-.03.222-.093.062.058-.046.173-.124.16-.157.06-.314-.052-.469-.027-.062.073-.147.115-.179.212a.279.279,0,0,1-.092.232.327.327,0,0,0-.082.231c-.115.053-.019.138.063.172.1.1.265.044.364.15.077.037.116.086.2.045.081.04.172,0,.242.052.055.072.168.056.245.1s.089.133.169.171c.115.075-.025.147.023.226.106-.041.135.1.246.05.127-.039.123.116.154.2a.493.493,0,0,1-.067.227c-.032.079-.082.165-.031.244-.084-.006-.149.109-.15.189-.115.07.045.077.06.141,0,.064.078.2-.016.234s-.183,0-.277.01-.191-.026-.182.089c.071.046,0,.172.1.182.136-.039.065.125.054.193.087.068-.074.174.046.231-.007.11-.078.21-.08.317a1.024,1.024,0,0,1-.095.5c.031.087.146.071.091.167-.076.065.077.122.107.181.061.074-.021.166-.069.228.039.1-.06.194-.036.28.078-.018.114.195.142.081.072.046.2-.134.152.02-.04.107.074.125.129.178.1.007.058.181.134.172.042.122.159,0,.22.028.063.075.168.018.236.092s.112-.056.2-.058c.03-.074.139-.079.177-.129.094,0,.185-.042.184-.149-.154-.1.09-.058.061-.149a1.623,1.623,0,0,0,.217-.12l.022-.007c.028,0,.048-.032.079-.026a.232.232,0,0,0,.13-.044.38.38,0,0,1,.134-.091,2.194,2.194,0,0,0,.211-.164.122.122,0,0,1,.069.015.132.132,0,0,0,.084,0c.02-.012.04-.015.056.005a.768.768,0,0,0,.171.018c.02,0,.05,0,.041.028s.011.055-.008.076a.178.178,0,0,0-.032.084c0,.028-.023.057-.008.083s.012.042.036.048c.035.049.059.106.095.155a1.131,1.131,0,0,0,.118.148c-.019.013-.04.029-.04.054,0,.048.008.1,0,.145,0,.019,0,.051.026.026s.038.007.044-.024a.062.062,0,0,0,.059.006.082.082,0,0,1,.078.03l.032.077c0,.01.01.02,0,.03s-.014.012-.025.014-.019.014-.019.027a.018.018,0,0,1-.019.02c-.016,0,0,.014,0,.022l-.013.046c-.01.019-.024.036-.035.054-.014.057-.025.115-.038.172,0,.029,0,.059,0,.089s-.009.035-.014.052a.063.063,0,0,0,0,.029c.01.005.019.011.022.022s-.006.046-.008.068a.213.213,0,0,1-.033.021.256.256,0,0,0-.014.036.3.3,0,0,1-.114-.029.073.073,0,0,0-.126.022c-.038.022-.1.063-.136.051-.048-.035-.094.064-.081.1s.012.107.057.139.082.069.123.1c.052.014.05.093.1.119s.074.08.112.121c.062.043.007.111-.027.154.009.043.086.068.031.119.044.04.011.064.055.111a.078.078,0,0,1,.038.128c-.04.039-.06.1-.128.069s-.036.057-.088.093c-.069.054-.041.163-.117.21-.066.031-.042.1-.035.154-.023.038-.077.1-.016.137.025.073.093.03.131.072.052.069-.078.052-.065.112.035.043-.055.116-.016.148.063-.01.059.045.118.06.025.034.07.122.01.127-.032.044-.107.039-.137.065-.026.064.052.111.048.141-.057.027-.017.106-.07.143-.022.043.046.124-.024.139-.051.025-.124.011-.094.093-.028.054.026.115,0,.161a.759.759,0,0,0-.067.147c-.041.036-.048.075-.091.091-.024.043,0,.106-.049.144.035.067-.027.087-.042.135-.046.058.032.08.089.074.046.043.092,0,.128-.029.065-.032.076.034.095.077.065,0,.067.062.106.1.041.063.088.029.142.035s.09.07.15.07a.464.464,0,0,0,.128-.072c.013-.052.06-.031.1-.088.053-.006.119-.07.159-.011.069-.031.007.061.005.092-.011.071.086.035.106.091a1.252,1.252,0,0,1,.114-.227c.064.029.09.056.021.065-.05.053.023.107,0,.158-.056-.007-.068.094-.017.106.083-.008.065.1.066.153.034.029.065.087.115.1.027.076.093-.007.141-.019l0,.049c0,.012,0,.026.012.029s.031.008.048.01l.01.056a.17.17,0,0,0-.086.181c0,.014.013.018.02.027a.153.153,0,0,1-.067.062l.009.057-.043.038c-.035.013-.075.027-.1-.006-.034-.056-.114.01-.071.068a.172.172,0,0,1-.038.082c-.01.012-.057.046-.063.06s.008.056-.006.074c-.047.033-.019.049,0,.08a.53.53,0,0,1,0,.2c.006.071-.062.1-.115.165s-.01.138-.116.141c-.074-.041-.142-.009-.112.057s-.006.124-.053.157c-.091.005-.079.1-.045.158.061.086-.057.072-.033.172-.018.062-.021.127-.04.192.045.074.051.118-.026.174-.03.09-.137.02-.135.12.025.038.129.041.1.129s.016.141-.044.194c-.078.02-.06.13-.127.151s-.125.057-.137.124a.281.281,0,0,0-.13.156.149.149,0,0,1-.038.175c-.041.059.007.128-.1.12-.027-.062-.15-.024-.17.036.034.073-.075.1-.095.135,0,.085.071.066.082.132.034.066.126.084.124.172.032.063.1.079.131.145a.6.6,0,0,1,0,.193c.022.1.066.062.078,0,.052-.02.166.041.08.1,0,.1.07.092.137.131.024.047.009.137.094.139s.031.117.062.149c.008.049.042.113-.014.166a.463.463,0,0,0-.1.171c-.083.009-.088.08-.088.152s-.156.039-.1.11c.031.094-.125-.012-.139.045a.109.109,0,0,1-.079.17c-.077-.04-.129-.059-.07.048.029.062.016.138.1.172s.084.12.118.182c.007.07-.042.14.031.2.031.1.136.134.174.226.1.016.046.106.082.167.057.049.1.117.151.172l.012.032a.548.548,0,0,0,.066.149.053.053,0,0,1,0,.079.6.6,0,0,0-.108.232.234.234,0,0,1-.109.043.142.142,0,0,1-.07.054c-.018-.023-.029-.053-.054-.069s-.046-.05-.078-.045a.119.119,0,0,0-.095.046c-.031.021-.03.043,0,.065a1.1,1.1,0,0,0,.045.173c.009.043.058.052.078.087a.144.144,0,0,1,.012.1.738.738,0,0,0-.115.015c-.033,0-.048.025-.066.047a.3.3,0,0,0-.03.142.388.388,0,0,0-.1.116.136.136,0,0,1-.055.077c-.018.018-.042.047-.066.044-.011-.027-.031-.055-.063-.047s-.048.033-.032.066.05.03.049.064-.029.049-.04.074-.018.077.008.049c.03-.011.046-.046.075-.054s.045.033.054.058-.027.049-.036.074c-.013.05.028.093.057.129s-.013.051-.035.023-.024-.066-.055-.045a.1.1,0,0,1-.089-.008c-.022-.025-.053-.009-.081-.007a.264.264,0,0,0-.092.065c-.009.024-.073,0-.057.03s.042.07,0,.058c-.029,0-.034.037-.069.03l.022.018c.024.019.318.227.345.248s.2.166.2.166a.529.529,0,0,1,.068.075.371.371,0,0,0,.022.043c.006.006.052.015.069.027s.2.124.2.128.034.042.043.06a.585.585,0,0,0,.057.067.042.042,0,0,0,.026.018c.011,0,.016.009.028.02a.7.7,0,0,0,.107.022s.1.041.114.055.179.127.182.132a.2.2,0,0,1,.021.077c0,.027.015.032.033.039s.03.032.044.041.045-.01.069-.019a1,1,0,0,1,.169.01.309.309,0,0,1,.126.041.215.215,0,0,0,.089.024,1.273,1.273,0,0,1,.151.05,1.327,1.327,0,0,0,.2.055.575.575,0,0,1,.092.028c.018.006.2.03.219.035a.309.309,0,0,1,.069.014c.013.008.042,0,.058.009s.142.024.157.032a.859.859,0,0,0,.119.013c.01,0,.009.015.01.022s.045,0,.063,0,.084,0,.085,0,.01-.063.034-.078a.265.265,0,0,1,.057-.022.11.11,0,0,0,0-.036s-.007,0-.014,0,0-.006-.006-.015,0,.027-.015.024-.015-.045-.008-.061,0-.023-.012-.038.011-.062.019-.076a.959.959,0,0,1,.124-.115c.03-.02.036-.01.049-.019s.12-.05.158-.065a.717.717,0,0,1,.126-.035.293.293,0,0,0,.088-.023.443.443,0,0,1,.1-.022.1.1,0,0,1,.041.008c.014,0,.171-.017.187-.019a.741.741,0,0,0,.074-.016c.008,0,.026.044.028.046a.14.14,0,0,0,.04,0c.01,0,.025-.009.026-.017a.063.063,0,0,1,.009-.032.184.184,0,0,1,.058-.02.184.184,0,0,0,.054-.032c.016-.015.06-.007.075-.014s.061-.022.072-.025.015-.007.034-.024a.057.057,0,0,1,.038-.016.09.09,0,0,1,0-.022c0-.006.048-.028.059-.037a.1.1,0,0,1,.062-.024c.024,0,.029-.009.043-.023a.052.052,0,0,1,.029-.019c.009,0,.019-.039.021-.051s.007-.026,0-.033-.026-.02-.015-.045a.139.139,0,0,1,.044-.059.157.157,0,0,0,.055-.047.29.29,0,0,1,.076-.067.965.965,0,0,1,.156-.051c.02-.008.111-.033.132-.043s.158-.065.176-.07a.954.954,0,0,0,.1-.043c.018-.01.068-.074.1-.1a.212.212,0,0,1,.067-.033.335.335,0,0,1,.062-.037.476.476,0,0,0,.084-.04c.024-.014.153-.087.166-.093a.153.153,0,0,1,.035-.009s-.01,0-.017-.009,0-.039.006-.049a.6.6,0,0,1,.095-.053c.015-.007.007-.018.021-.032s.143-.064.153-.074.074-.027.1-.04.178-.07.18-.072a.054.054,0,0,1,.022,0c.008,0,.023-.011.045-.016a.913.913,0,0,0,.1-.036c.011-.006.024-.01.035-.015a.181.181,0,0,0,.031-.021.044.044,0,0,0-.019,0c-.005,0,0-.007,0-.021s-.016,0-.031-.009-.029-.063-.029-.073a.13.13,0,0,1,.023-.065c.017-.023.011-.026.018-.054a.392.392,0,0,1,.026-.1c.016-.022.091-.137.114-.168s.065-.077.086-.1a1.541,1.541,0,0,1,.117-.112c.022-.021.105-.126.114-.133a.065.065,0,0,0,.021-.033c0-.01-.021-.02-.024-.029s-.005-.035-.011-.055-.011-.03-.015-.051a.757.757,0,0,1,.005-.113.516.516,0,0,1,.043-.148.1.1,0,0,0,.024-.066,1.3,1.3,0,0,1,.023-.134c0-.014.021-.045.013-.064a.42.42,0,0,0-.043-.084.473.473,0,0,1-.039-.137c0-.019.005-.1.007-.116a.7.7,0,0,0-.009-.1c0-.025.025-.076.028-.087a.394.394,0,0,0,.008-.074c0-.012.013-.037.02-.076a.259.259,0,0,1,.04-.084c.006-.013.074-.046.074-.051a.171.171,0,0,1,.02-.033s.025-.111.031-.121.038-.078.045-.089a.611.611,0,0,1,.062-.058.369.369,0,0,1,.1-.028.051.051,0,0,1,.026.009.224.224,0,0,1,.022-.03c.012-.011.023.007.029.014s.035.006.054.012a.334.334,0,0,1,.068.039c.013.009.021,0,.03-.012s.02,0,.032-.01a.027.027,0,0,0,.015-.018.037.037,0,0,1-.022.011.1.1,0,0,0-.046.02c-.011.009-.014-.006-.018-.009s0,0,.01,0a.022.022,0,0,0,.015-.025c0-.014-.03-.02-.044-.025s-.023.021-.035.019a.238.238,0,0,1-.048-.008c-.009,0,.025-.026.023-.032S36.845,73,36.838,73s.005-.01.011-.015a.354.354,0,0,1,.083.041c.015.009.059,0,.068.007a.136.136,0,0,1,.024.017.053.053,0,0,0-.014-.025c-.011-.01-.076-.01-.089-.019s-.041-.022-.047-.025-.006-.011-.01-.024a.192.192,0,0,0-.024-.039.171.171,0,0,1,0-.056.133.133,0,0,0,0-.048.035.035,0,0,1,0-.018l-.074,0s0,.022,0,.028a.293.293,0,0,1,.006.045c0,.011-.019.017-.025.021a.1.1,0,0,1-.027.007c-.006,0-.007.05-.011.056s-.014,0-.029-.013a.057.057,0,0,0-.039,0c-.012,0-.012-.011-.017-.017s-.039-.006-.042-.007,0,.024-.02.021,0-.044-.007-.053.008-.017.012-.013a.094.094,0,0,1,.009.024s.006,0,.007-.011-.01-.028-.011-.036,0-.024.006-.027.006.021.009.029.01,0,.014-.007-.011-.026-.013-.034,0-.032-.007-.042,0-.022,0-.028-.012.007-.02,0,.007-.043.015-.049.018.012.026.009,0-.009,0-.015a.034.034,0,0,1,0-.03c0-.006.007-.009,0-.018a.217.217,0,0,1,.006-.073.123.123,0,0,1,.022-.028s0-.008-.01-.012-.016-.061-.01-.08.016-.026.019-.039-.019-.035-.018-.055a.276.276,0,0,1,.019-.061c0-.012,0-.076,0-.1a.418.418,0,0,1,.036-.108c.011-.017.018-.02.027-.02s.014,0,.02-.016,0-.08,0-.1.069-.152.075-.166a.747.747,0,0,1,.074-.108.546.546,0,0,0,.043-.077,1.5,1.5,0,0,1,.142-.123c.013-.009.09-.072.106-.081s.207-.147.235-.161.162-.1.183-.117.292-.214.308-.228.078-.062.1-.085a1.127,1.127,0,0,0,.082-.088,1.032,1.032,0,0,1,.119-.092c.016-.014.126-.087.167-.117a.9.9,0,0,1,.147-.054c.009-.009.029-.006.045-.013s.081-.025.1-.033.122-.012.132-.015a.17.17,0,0,1,.063,0c.013,0,.048-.016.06-.011a.229.229,0,0,0,.074-.021c.014-.005.135-.024.138-.024a.357.357,0,0,0,.075-.006.924.924,0,0,1,.123-.009c.01,0,.066.005.1.006a.127.127,0,0,1,.072.021.088.088,0,0,0,.06.017c.022,0,.066-.054.074-.062a.5.5,0,0,1,.1-.049c.036-.012.049-.023.055-.022a.088.088,0,0,0,.031-.011.117.117,0,0,1,.049-.01.543.543,0,0,0,.083-.016c.019,0,.073-.006.091-.009s.077-.006.078-.007a.021.021,0,0,0,0-.017s-.037.01-.053,0,0-.035,0-.044-.009-.019-.016-.028-.024-.014-.026-.02a.149.149,0,0,1,0-.06.154.154,0,0,1,.056-.052.481.481,0,0,1,.047-.026c.009,0,.009-.011.018-.017a.134.134,0,0,1,.059-.011c.019,0,.085-.008.1-.005l.066.01a.324.324,0,0,1,.072.023.259.259,0,0,0,.044,0c.016,0,.051,0,.062,0s.006-.006.006-.018a.1.1,0,0,1,.017-.039c.006-.011,0-.018,0-.04s.022-.017.026-.017.01-.014.011-.023.052-.011.061-.014.029,0,.045-.007a.763.763,0,0,1,.079-.019.061.061,0,0,0,.038-.016c.008-.01.044-.018.056-.023s.029,0,.051-.008.033-.025.043-.029a.076.076,0,0,1,.033,0c.005,0,.009-.009.025-.021s.043,0,.048,0,.053-.041.059-.046a.241.241,0,0,1,.08-.009.127.127,0,0,0,.071-.027.291.291,0,0,1,.085-.03.325.325,0,0,0,.052-.025.1.1,0,0,1,.066,0c.02.005.035-.024.043-.033s.06-.005.073,0,.029-.015.049-.021a.224.224,0,0,1,.076.013.279.279,0,0,1,.069.016.211.211,0,0,0,.064.017.078.078,0,0,0,.047-.019.086.086,0,0,0,.028-.036.256.256,0,0,1,.057-.05.143.143,0,0,1,.044-.015.208.208,0,0,1,.035-.012.511.511,0,0,1,.063-.01c.023,0,.057-.02.076-.019s.147-.005.149-.006a.772.772,0,0,1,.082,0,.707.707,0,0,1,.118.006.612.612,0,0,0,.1.016l.037,0a.054.054,0,0,1,.028.009.272.272,0,0,0,.061.012.477.477,0,0,0,.056.006.117.117,0,0,1,.045.011.218.218,0,0,0,.066,0,.025.025,0,0,1,.026.013.291.291,0,0,0,.065.011l.13,0c.006,0,.022,0,.036-.006s.054-.017.064-.017a.651.651,0,0,0,.062-.021.153.153,0,0,0,.036-.02.7.7,0,0,1,.073-.017c.015,0,.072-.007.084-.009s.025-.024.039-.028.058,0,.071-.005.1-.022.134-.023.086,0,.1,0,.021-.012.02-.016-.049,0-.067,0-.031-.011-.042-.014-.02.007-.029.008a.472.472,0,0,1-.079,0,.327.327,0,0,1-.063-.025l-.012-.011a.274.274,0,0,1-.036-.012.077.077,0,0,0-.039-.011c-.011,0-.017.019-.024.025s-.033.011-.044.017-.013.019-.02.024a.108.108,0,0,1-.043,0c-.014,0-.015.006-.02.01s-.023,0-.032,0,0,.005,0,.01-.008,0-.023,0-.01-.016-.017-.023-.014,0-.03,0a.281.281,0,0,0-.065-.013.091.091,0,0,1-.037-.005c-.009,0,0-.009,0-.016s-.019,0-.031,0-.013-.012-.02-.018-.017,0-.031,0,0-.011,0-.011.035,0,.039,0a.042.042,0,0,0,.022.015c.01,0,.048.01.052.013s.026,0,.03,0a.618.618,0,0,1,.06.022c.01,0,.066.005.071.009s.035.01.043,0,.03-.007.032-.009-.009-.01-.019-.014a.069.069,0,0,0-.045,0,.228.228,0,0,1-.049.008,1.538,1.538,0,0,1-.176-.05c-.034-.01-.163-.048-.192-.061s-.207-.136-.257-.173-.249-.208-.279-.236-.127-.13-.154-.154-.185-.217-.192-.226L42,68.275c-.016-.02-.049-.069-.058-.084s-.06-.116-.067-.122-.027-.051-.034-.06a.611.611,0,0,1-.036-.08c0-.011-.019-.127-.019-.127s.027-.033.034-.034a.735.735,0,0,0,.075.01c.017,0,.011-.028.011-.05s.006-.084.005-.094a.138.138,0,0,1,.019-.042c.006-.012.014-.029.02-.042a.165.165,0,0,0,0-.064.157.157,0,0,1-.02-.042.766.766,0,0,1,.017-.106.36.36,0,0,0,.01-.067.246.246,0,0,1,.011-.059A.429.429,0,0,1,42,67.151c.009-.016-.007-.041,0-.05s.036-.074.036-.074a.8.8,0,0,0,.013-.079,1.525,1.525,0,0,1,.152-.138.235.235,0,0,0,.046-.072c.01-.025.042-.082.053-.112a.5.5,0,0,0,.016-.11.5.5,0,0,1,.087-.171.155.155,0,0,0,.047-.078c0-.023.05-.066.077-.083a.084.084,0,0,0,.042-.063c.007-.03.046-.028.069-.058s.016-.065.051-.1.1-.121.116-.134a1,1,0,0,1,.117-.049c.009-.006.015-.057.036-.085a.372.372,0,0,1,.1-.1c.037-.018.014-.019.018-.046a.419.419,0,0,1,.072-.147c.028-.028.119-.069.118-.083s.049-.068.049-.068.026-.019.033-.027.028-.034.038-.047a.122.122,0,0,0,.008-.061c0-.007-.032-.022-.036-.025a.094.094,0,0,1,0-.056c.008-.015.029-.029.032-.051a.256.256,0,0,1,.02-.057.11.11,0,0,1,.042-.036.133.133,0,0,0,.048-.054c0-.016.048-.043.066-.054s.02-.04.025-.055a.051.051,0,0,0,0-.042c-.007-.012.019-.051.031-.064s.036-.016.053-.028a.428.428,0,0,0,.044-.042.046.046,0,0,0,.02-.036c0-.019.017-.023.039-.038a.286.286,0,0,0,.042-.044c.015-.015.1-.066.1-.078a.549.549,0,0,0,.023-.061.133.133,0,0,1,.046-.049.164.164,0,0,0,.052-.064.833.833,0,0,1,.067-.071c.012-.016.05-.059.058-.07s.044-.026.057-.06.083-.062.1-.07.074-.028.076-.032-.016-.009-.027-.017a.31.31,0,0,1-.069-.069c-.018-.03,0-.031.013-.056s0-.04-.022-.065a.123.123,0,0,0-.064-.042c-.024-.007-.03.006-.046-.013s-.016-.043-.026-.057-.034-.1-.044-.114.02-.025.024-.028a.243.243,0,0,0-.011-.065c0-.018.016-.02.022-.025s0-.051.014-.062.037-.022.036-.029-.016,0-.031,0a.072.072,0,0,1-.037-.054c0-.021.012-.01.012-.033s0-.058,0-.064a.763.763,0,0,1,.076-.025c.017-.008,0-.049,0-.069s-.015-.033-.02-.046.024-.023.028-.028-.012-.033,0-.05a.167.167,0,0,1,.062-.048.641.641,0,0,0,.082-.054c.03-.022.037-.056.056-.075s.077-.051.076-.053.012-.043-.011-.055-.074-.043-.083-.067.071-.1.091-.121.034-.032.051-.049a1.054,1.054,0,0,1,.111-.086c.008,0,.023.01.041,0s.043-.059.06-.075.051-.022.081-.044a.17.17,0,0,1,.082-.032c.036-.008.062.006.085,0s.058-.032.09-.041.032,0,.045-.017.017-.041.031-.054.013-.044.023-.066.059-.037.072-.044.192,0,.211,0,.08,0,.1,0a.407.407,0,0,1,.083.022.306.306,0,0,0,.092,0c.02,0,.155.018.167.019l.071,0c.016,0,.071,0,.084,0s.04.009.058.009a.041.041,0,0,0,.039-.022.049.049,0,0,1,.018-.025.017.017,0,0,0,.007-.02.1.1,0,0,0-.053.008.064.064,0,0,1-.061.008c-.031-.009-.054-.008-.049-.016a.05.05,0,0,1,.035-.019c.017,0,.022-.012.032-.027s-.007-.03-.015-.037a.021.021,0,0,1,0-.031c.01-.007.017-.008.02-.02s.02,0,.031,0,.012.017.011.03,0,.007-.012.011.013.02.027.023a.062.062,0,0,0,.047-.013c.007-.008.031,0,.046,0s.011.017.006.028-.026,0-.035-.007-.006.02-.011.034.006.02.021.025.036-.022.047-.026.035.006.052,0,.033-.016.019-.03-.02-.034-.035-.049-.015-.015-.017-.023.028-.014.034-.011a.062.062,0,0,0,.029,0s0-.019,0-.026,0-.022,0-.029.016-.014.04-.01.08.025.095.025.014,0,.021.006.029,0,.039.006.07.021.081.022.03-.022.03-.022a.282.282,0,0,0,.014.041.045.045,0,0,1-.024.049.073.073,0,0,1-.048,0c-.01,0-.035-.018-.047-.015a.259.259,0,0,1-.063-.009.1.1,0,0,0-.056.017.029.029,0,0,0-.013.037.051.051,0,0,1-.011.043c-.012.012-.014.02-.022.028s-.031,0-.047.006-.031.018-.045.008-.04-.033-.051-.028-.015.025-.026.038-.013.024-.008.03a.344.344,0,0,0,.084.023.3.3,0,0,1,.066.006c.015.006.059.01.076.016s.066.008.088.012l.119.02s.038.008.061.011l.083.007a.655.655,0,0,1,.083.02c.017.005.024,0,.046.006a.473.473,0,0,0,.07.013.1.1,0,0,0,.049.006.443.443,0,0,1,.088.016.2.2,0,0,0,.049.006.392.392,0,0,1,.089.021c.013.007.029,0,.025-.01s-.024-.018-.037-.03-.026-.006-.043,0-.047-.023-.062-.025-.079-.008-.1-.012a.078.078,0,0,1-.039-.012c-.01-.008-.033,0-.049,0s-.008-.01-.018-.009a.069.069,0,0,1-.042-.013c-.012-.01-.02.006-.038,0A.582.582,0,0,1,46.779,62a.13.13,0,0,0-.068,0,.04.04,0,0,1-.028-.008c-.007-.006,0-.011-.007-.014s-.005.005,0,.013-.027.007-.042,0-.007-.012-.014-.014a.289.289,0,0,1-.061-.01c-.019-.008-.058,0-.106-.018s-.031-.012-.043-.033.019-.021.029-.035.013-.041.021-.047.038.023.064.031.044-.042.062-.028a.12.12,0,0,0,.081,0c.017,0,.028-.053.04-.072s.063-.031.074-.048.053-.009.083-.014.025,0,.039,0,.026-.017.026-.026-.05-.029-.071-.039a.215.215,0,0,1-.065-.044c-.011-.015,0-.029,0-.04a.523.523,0,0,1,0-.093.253.253,0,0,1,.1,0A.45.45,0,0,0,47,61.454a.072.072,0,0,1-.006.049c-.011.019-.013.072-.02.082a.033.033,0,0,0,0,.042.412.412,0,0,0,.047.061c.018.014.019-.021.041-.028s.08.046.076.054-.026.022-.031.041.039.007.042.025a.122.122,0,0,0,.038.056.112.112,0,0,0,.112.014.435.435,0,0,1,.069-.029.31.31,0,0,1,.1.008.112.112,0,0,0,.07-.009c.008-.007.033.012.043.016s.064.023.08.031.042,0,.063.018.105.052.128.063a.252.252,0,0,1,.076.05c.023.024.076.023.1.043a.609.609,0,0,0,.11.064.065.065,0,0,1,.045.059c0,.02-.03.024-.048.024a.6.6,0,0,1,.108,0,.867.867,0,0,0,.177-.011,1.225,1.225,0,0,0,.218-.065.687.687,0,0,0,.125-.092.151.151,0,0,0,.019-.1.787.787,0,0,0-.022-.091c-.006-.022-.019-.134-.031-.166s-.016-.139-.028-.186-.037-.3-.042-.32-.009-.163-.013-.21-.009-.255-.012-.268a.636.636,0,0,1,0-.1c0-.023,0-.186,0-.21a1.307,1.307,0,0,1-.018-.145c0-.028,0-.111,0-.111s-.015-.262-.015-.269-.005-.048-.008-.071,0-.165,0-.172,0-.064,0-.1-.008-.107-.013-.123a.163.163,0,0,1,.006-.059c0-.011,0-.167,0-.184s-.015-.21-.014-.229a.174.174,0,0,0,0-.055.862.862,0,0,1,0-.166.321.321,0,0,0,0-.066c0-.019,0-.172,0-.184s0-.06,0-.1h-.006l-.043.008a1.316,1.316,0,0,1-.159.01c-.021,0-.039-.008-.057-.016s-.026-.021-.009-.033a.471.471,0,0,0,0-.063.068.068,0,0,0-.012-.041.051.051,0,0,0-.038.029c-.009.007-.014-.025-.022-.034a.233.233,0,0,0-.044-.017.078.078,0,0,1-.034-.046.047.047,0,0,1,0-.048c.01.01.015.031.027.035s.043-.024.068-.03.017-.02.011-.035-.019-.035-.039-.034a.12.12,0,0,1-.062-.018c-.02-.006-.03-.014-.008-.027a.7.7,0,0,0,.139,0,.1.1,0,0,0-.043-.037.049.049,0,0,0-.047-.008c-.018,0-.04.012-.054,0a.052.052,0,0,0-.05-.015c-.015.008-.03.019-.04,0s-.024-.022-.037,0-.038.01-.042,0a.036.036,0,0,1,.027-.034c.016,0,.034,0,.037-.023a.385.385,0,0,0-.021-.059l-.061-.01c-.021-.008-.028,0-.026.021s0,.037-.016.046-.029.006-.045.005.012-.029.013-.042c-.014-.011-.039-.013-.038-.035s-.006-.033-.022-.012.007.036,0,.051-.012.042-.027.021a.314.314,0,0,0,0-.08c.018-.009.026-.02.008-.035l-.09.011c-.023.008-.026,0-.016-.022s-.029-.013-.015-.035-.023-.015-.029,0-.012-.018-.007-.03-.03-.009-.042-.015-.035,0-.043-.015,0-.01,0-.015a.02.02,0,0,0,.009-.02h-.026c-.006,0-.02.006-.017,0s.006-.011.015-.011.02,0,.013-.008,0-.02,0-.031.015,0,.021-.007a.035.035,0,0,0,.022-.013c.01-.012.026-.014.039-.02a.1.1,0,0,0,.008-.021c0-.013-.01-.026-.014-.038l-.025.015a.2.2,0,0,0-.006.03l-.025-.007a.1.1,0,0,0-.045,0c-.008,0-.007-.013-.01-.018a.364.364,0,0,1,0-.046.028.028,0,0,1,.006-.022.165.165,0,0,0,0-.033l.035,0a.162.162,0,0,0,.048-.008l.039.019.041-.012.035.03.007.05.05-.017a.358.358,0,0,1,.041,0v-.026a.168.168,0,0,0-.008-.054l-.032-.009a.143.143,0,0,1-.014-.021c0-.008,0-.018.011-.023a.122.122,0,0,0,.029-.036l-.03.007-.009-.023-.057-.012.01-.029c0-.015-.008-.03-.012-.045s0-.021,0-.029.031-.018.048-.026l.076.053a.1.1,0,0,0,.039.012.166.166,0,0,1,.062,0,.112.112,0,0,0,.055,0c.013,0,.021,0,.029.014a.229.229,0,0,1,0,.04c0,.012.015.017.022.026a.351.351,0,0,0,.045.006.1.1,0,0,0,.036-.032c.015-.015.006-.039.018-.055s.029-.016.04-.028.021-.013.032-.019.015.017.024.023.029.008.042,0,.018-.022.024-.034l.077,0a.273.273,0,0,1,0,.051c.024.007.049.012.071.02a.905.905,0,0,0,.142,0h.006c0-.037,0-.068,0-.072a1.527,1.527,0,0,1,0-.171.656.656,0,0,0,.014-.112.418.418,0,0,0-.01-.085c-.008-.035.014-.14.01-.168a.179.179,0,0,1,0-.079,1.512,1.512,0,0,0,0-.257c-.008-.027,0-.264,0-.281s-.012-.089-.016-.119,0-.153,0-.17a.841.841,0,0,0-.016-.119c-.012-.037-.018-.16-.022-.174a.571.571,0,0,1,0-.085s-.017,0-.021,0,0,.045,0,.053a.07.07,0,0,1-.059.011c-.015-.007-.012-.018-.017-.022s.011-.021.009-.024a.161.161,0,0,1,.041,0c.006,0,.014-.02.014-.029s.008-.006.013-.01,0-.026-.014-.051a.814.814,0,0,1-.016-.108c-.007-.025-.019-.169-.027-.189s-.017-.174-.018-.185.009-.169.013-.19a.291.291,0,0,0,0-.082c0-.013-.008-.011-.022-.01l-.035-.04a.724.724,0,0,0-.05-.1,1.206,1.206,0,0,1-.033-.139c-.013-.03-.045-.188-.056-.229s-.084-.206-.094-.225a1.877,1.877,0,0,1-.1-.22c-.009-.041-.01-.064-.028-.078s-.016-.033-.031-.069a.521.521,0,0,0-.064-.112,1.425,1.425,0,0,1-.061-.31c-.006-.059.037-.365.039-.384a2.965,2.965,0,0,1,.068-.384c.035-.112.07-.186.072-.194a1.519,1.519,0,0,1,.024-.186.9.9,0,0,0,.045-.237,3.036,3.036,0,0,1,.068-.306c0-.013.007-.037.014-.065l-.008,0a.171.171,0,0,1-.05-.06.484.484,0,0,1-.01-.059c-.006-.015.008-.024.014-.036a.105.105,0,0,1-.045-.037c-.006-.013-.011-.025-.026-.028s-.025,0-.037,0-.044-.006-.065-.008-.021,0-.022.019,0,.032-.018.035a.3.3,0,0,0-.017.046c0,.013-.006.027-.022.029a.269.269,0,0,1-.042-.015.28.28,0,0,1-.023-.037c-.006-.011-.019-.023-.008-.035s.022-.007.019-.026,0-.03.018-.029.007-.025.012-.036a.182.182,0,0,0,0-.076c-.013,0-.03,0-.036-.019l-.044.006,0,.041a.215.215,0,0,1-.028.029l-.007.106L47.68,51l.018-.1-.052-.006c-.011,0-.031-.01-.036,0l-.08,0-.02.063-.038-.089c0-.017-.022-.016-.035-.022l.012-.1c0-.012.007-.029,0-.037a.224.224,0,0,0-.075,0,.026.026,0,0,0-.03.019c-.013.015-.035.006-.052.007s-.016,0-.014.02-.044,0-.064.009-.019-.024-.022-.044.007-.047.036-.033c.028,0,.031.027.053,0a.08.08,0,0,1,.059-.021c.015-.018-.015-.052.017-.053s0-.042-.018-.046l.021-.08.1.011c.025,0,.05,0,.039.034l-.077,0v.127c0,.023.038.012.054.021s.036.024.061.021.049,0,.062-.017a.405.405,0,0,0,0-.073c.008-.028.041-.024.063-.034l-.145-.151a.32.32,0,0,1,.005-.068c0-.021.018-.053-.014-.055s-.042-.028-.061-.011a.169.169,0,0,0,.019.1c.006.01-.034-.021-.035-.035,0-.03-.034-.03-.055-.033a.357.357,0,0,1-.04-.058c-.019-.021,0-.041.015-.055.007-.037.029-.006.039-.031a.181.181,0,0,1,.087-.032c.026.006.028-.038.006-.043s-.044-.023-.022-.047c.005-.019.032-.048.007-.061a.058.058,0,0,0-.074-.009c-.022-.011-.038.016-.059,0s-.043.022-.055-.009l-.041.052a.237.237,0,0,1-.041-.068l-.059.036c-.021-.007-.051,0-.061-.024s.016-.07.012-.105.032-.018.021-.051a.137.137,0,0,1,.085,0l.027-.064c.015-.012.047,0,.052-.028s.047-.008.049-.036.021-.035.047-.025.056,0,.056.021c.013.046-.017.091-.007.138a.349.349,0,0,1,.06.054c.028.018.02.057.045.078a.179.179,0,0,0,.081.017c.024-.013.061-.009.073-.037a.252.252,0,0,1,.052-.1l.106.058c.006.02.023.039.02.06a.058.058,0,0,1-.042.045c-.022,0-.022.041-.049.031s-.027.036-.054.028-.044.006-.058-.017-.039-.031-.055-.015a.559.559,0,0,0-.012.089l.1.043c.024.006.042.017.033.045a.224.224,0,0,0,.021.1c0,.041,0,.084,0,.126-.013.026.03.039.03.013a.339.339,0,0,1,.048-.044.664.664,0,0,1,0-.1L47.9,50.3c.017-.016.047-.022.048-.048s.038-.023.041-.049.034-.008.054-.016a.125.125,0,0,1,.066.057.156.156,0,0,0,.031-.1.1.1,0,0,1,.026-.073.056.056,0,0,1,.063-.007.344.344,0,0,1,.017.079.091.091,0,0,0,.048.08.853.853,0,0,0,.169,0h0c.005-.038.01-.073.014-.093a2.174,2.174,0,0,1,.139-.359c.037-.063.158-.343.2-.42s.363-.531.4-.6a3.69,3.69,0,0,1,.209-.339c.035-.045.159-.249.231-.362l.052-.077c.012,0,.034-.1.053-.134s.069-.109.077-.119a1.169,1.169,0,0,1,.093-.125c.015-.008.08-.123.1-.139a.188.188,0,0,0,.043-.057.628.628,0,0,1,.077-.1.939.939,0,0,0,.131-.146.5.5,0,0,1,.095-.107c.012-.012.055-.077.076-.1a1.542,1.542,0,0,1,.1-.164,1.135,1.135,0,0,0,.087-.114.1.1,0,0,0,.025-.05.789.789,0,0,1,.045-.083.413.413,0,0,0,.016-.1c.006-.034.026-.148.033-.171s.013-.076.019-.1a.552.552,0,0,1,.046-.137c.019-.028.015-.051.026-.085a.569.569,0,0,1,.047-.09c0-.006,0-.039.012-.06a.167.167,0,0,0,.019-.072.463.463,0,0,1,.026-.1.866.866,0,0,0,.064-.132c0-.016,0-.057,0-.075a.3.3,0,0,1,.039-.108c.019-.021.057-.167.066-.179a1.094,1.094,0,0,1,.042-.119A.566.566,0,0,0,51.2,44.9c.01-.028.071-.211.084-.244s.044-.087.052-.114.011-.051.019-.078a1.414,1.414,0,0,0,.053-.187.06.06,0,0,0-.023-.05c-.013-.015-.008-.072-.008-.078s-.042,0-.045,0-.035,0-.043.015,0,.03.012.052-.01.051-.014.063-.024,0-.03,0,.005-.029.01-.051-.022-.026-.026-.028.01-.006.015-.019a.145.145,0,0,1,.043-.054c.019-.013.057,0,.064,0s-.01-.012-.006-.046.009-.171.007-.177a.843.843,0,0,1,.006-.154c.008-.035.021-.175.024-.2s.012-.1.018-.139.017-.132.018-.152.03-.127.026-.143a.592.592,0,0,1,.014-.1c0-.006.035-.13.036-.157a1.429,1.429,0,0,1,.057-.188.648.648,0,0,0,.02-.1c.008-.037.024-.148.026-.162s.027-.09.035-.112.062-.14.069-.153.029-.03.036-.042.01-.046.019-.063,0-.024,0-.024a.366.366,0,0,1-.02.032.144.144,0,0,0-.014.045c0,.009-.033-.007-.037-.011a.8.8,0,0,1,.03-.1c.009-.032.02-.066.02-.066a.208.208,0,0,0-.02-.048.093.093,0,0,1-.014-.055.285.285,0,0,1,.007-.069c.008-.024.034-.07.041-.092a.618.618,0,0,0,.041-.109,1.5,1.5,0,0,1,.065-.187.288.288,0,0,0,.024-.069c0-.025.025-.064.023-.081a.368.368,0,0,1,.036-.086c.007-.018.01-.043.005-.042A.936.936,0,0,1,52,40.95a.362.362,0,0,1,.039-.049c.007-.009-.029,0-.035-.006a.149.149,0,0,0-.028-.006c-.014,0,0-.011,0-.016s.017-.015.018-.027,0-.044,0-.06.023-.014.037-.014.017-.014.02-.017.014-.067.018-.087a.11.11,0,0,1,.019-.039l-.024,0a.389.389,0,0,1,0-.065c0-.019,0-.066,0-.069s-.022-.008-.033-.023a.2.2,0,0,1,0-.088,1.013,1.013,0,0,0,0-.1A.927.927,0,0,0,52,40.147a.472.472,0,0,1-.025-.059.351.351,0,0,0-.01-.073c-.008-.023-.026-.143-.03-.161a.865.865,0,0,1,0-.1c0-.03-.015-.162-.016-.168s-.028-.1-.034-.122a.079.079,0,0,0-.024-.032.077.077,0,0,0,0,.038.9.9,0,0,0,.036.091.07.07,0,0,1,0,.034.225.225,0,0,0,.016.071c0,.01-.015.029-.017.032s.011.114.01.133a.327.327,0,0,0,.025.1c.009.013.013.056.009.052a.215.215,0,0,0-.054-.028c-.016,0,0-.014.015-.025a.037.037,0,0,0,0-.048c-.011-.011.006-.015,0-.03a.246.246,0,0,1-.03-.074c0-.015-.02-.036-.025-.05s-.007-.037-.011-.041a.181.181,0,0,0-.042,0,.127.127,0,0,0-.042.02c-.013.011-.01.017-.014.025s.005.028.015.038a.08.08,0,0,1,.016.041c0,.011-.012,0-.025-.005s0,.011.007.025-.013.011-.02.011-.016-.006-.017-.02-.017-.035-.015-.058.021-.025.03-.04.008-.025-.012-.028a.05.05,0,0,0-.042.025.116.116,0,0,1-.057-.046.092.092,0,0,0-.042-.045c-.013,0-.031,0-.041,0s-.018,0-.026,0-.028-.031-.037-.044,0-.023,0-.033-.009-.02-.014-.027.017-.014.016-.024,0-.028-.006-.037a.069.069,0,0,0-.032-.033c-.013-.005-.02,0-.036-.011s-.018.007-.02.008-.017-.024-.025-.034-.023-.006-.03-.009,0-.011,0-.018-.033-.008-.039-.007a.066.066,0,0,1-.039-.034.182.182,0,0,0-.036-.047c-.013-.014-.033-.015-.058-.01a.145.145,0,0,1-.087-.011c-.045-.016-.056-.012-.06-.008s-.042-.011-.059-.017-.037,0-.058,0a.318.318,0,0,0-.093.009.224.224,0,0,1-.081,0,.467.467,0,0,1-.053-.005s-.023-.013-.022-.024a.294.294,0,0,0-.011-.058c0-.016-.022-.012-.027-.022a.03.03,0,0,0-.029-.009c-.006,0-.03.031-.045.026s-.013-.02-.019-.033-.029.014-.033.014a.278.278,0,0,0-.054-.012c-.016,0-.024-.014-.026-.014s-.014.05-.017.057a.026.026,0,0,1-.024.012c-.007,0,.01-.024.018-.031a.253.253,0,0,0,0-.075s-.024.009-.02.02a.055.055,0,0,1,.007.03c0,.007-.035-.006-.051-.024A.228.228,0,0,1,50.274,39h-.052c-.059-.069-.091.041-.107-.048a.038.038,0,0,0-.042-.027ZM44.721,68.94h-.008c-.012,0-.056.01-.06.019s-.011.014-.027.02-.057.01-.059.022a.036.036,0,0,1-.028.027.161.161,0,0,0-.065.056c-.007.018-.028.037-.028.051a.081.081,0,0,1-.032.046.234.234,0,0,1-.088.017.924.924,0,0,0-.122-.009l-.122.007c-.015.009-.007.03-.04.052s-.075.024-.078.039-.012.039,0,.039a.086.086,0,0,1,.062,0c.03.016.047.027.047.049a.059.059,0,0,1-.014.045c-.01.01-.027.027-.02.039s.018.027.023.02.017-.049.039-.051.115.008.138.006a.549.549,0,0,1,.108.005c.029.005.176.039.2.05s.253.114.276.13.3.176.318.193a1.719,1.719,0,0,0,.157.1c.028.014.175.105.193.121s.087.072.1.09.029.025.04.023.018,0,0-.017a1.169,1.169,0,0,1-.085-.091c-.012-.016-.07-.06-.083-.074s-.063-.068-.082-.084l-.08-.071a.63.63,0,0,0-.088-.06.349.349,0,0,1-.074-.058.382.382,0,0,0-.071-.059c-.016-.008-.1-.089-.114-.1a1,1,0,0,1-.085-.069c-.014-.016-.087-.1-.1-.121a.227.227,0,0,1-.029-.1c.006-.014.034,0,.042-.025s.007-.017.02-.027a.068.068,0,0,0,.022-.045c0-.016.04-.046.046-.059s.024-.019.012-.039a.284.284,0,0,0-.059-.061.387.387,0,0,0-.081-.045.11.11,0,0,0-.029-.008Zm-1.731.854h0s-.022.013-.022.019-.014.017-.02.022,0,.015,0,.021-.011.02-.007.022.027-.013.033-.021a.177.177,0,0,1,.022-.007.02.02,0,0,1,.016.007.037.037,0,0,0,.03.009.063.063,0,0,1,.031.011.093.093,0,0,0,.026.012c.007,0,.013.014.022.019a.019.019,0,0,0,.024-.007.169.169,0,0,1,.019-.029c.006-.006.008-.023.008-.023a.015.015,0,0,0-.013,0c-.007,0-.006.014-.009.022s-.006.019-.01.021-.01-.012-.012-.017-.014-.005-.023-.01,0-.017-.009-.017-.037,0-.048,0-.034-.025-.041-.034,0-.019,0-.019l-.017,0Zm-.971.165c-.015,0-.024.013-.043.007a.165.165,0,0,0-.056,0s-.016.008-.025.015a.039.039,0,0,1-.032.008.06.06,0,0,1-.019-.016c-.008.006-.039.019-.041.027s0,.01,0,.015a.017.017,0,0,0,.023,0,.031.031,0,0,1,.027-.013c.012,0,.051-.008.068-.009a.38.38,0,0,1,.075,0c.013,0,.014.01.033.006s.021-.013.019-.013a.044.044,0,0,0-.029-.013Zm-2.486.51s0,.012-.013.019-.029.039-.038.044-.014.013-.011.019.041,0,.052,0,.027-.03.032-.039.025,0,.028-.008-.01-.012-.016-.018-.015,0-.023,0S39.535,70.469,39.534,70.468Z" transform="translate(-1463.932 -2341.742)" fill="#061058"/>
  </g>
</svg>
